<?xml version="1.0" encoding="utf-8"?>
<!-- Generator: Adobe Illustrator 26.2.1, SVG Export Plug-In . SVG Version: 6.00 Build 0)  -->
<svg version="1.1" id="Layer_1" xmlns="http://www.w3.org/2000/svg" xmlns:xlink="http://www.w3.org/1999/xlink" x="0px" y="0px"
	 viewBox="0 0 1676.67 1105.35" style="enable-background:new 0 0 1676.67 1105.35;" xml:space="preserve">
<style type="text/css">
	.st0{fill-rule:evenodd;clip-rule:evenodd;fill:#3F4096;}
	.st1{fill:url(#SVGID_1_);}
	.st2{fill:url(#SVGID_00000041280885265250404510000003511789399125217408_);}
</style>
<path class="st0" d="M1153.5,936.03v-12.59c-4.67,3.77-9.75,7.07-15.15,9.83c-7.98,4.08-16.68,6.98-25.83,8.45l-2.78,0.4
	c-9.59,1.24-19.13,0.85-28.27-0.98c-9.41-1.89-18.39-5.3-26.58-10.03c-9.88-5.72-18.65-13.35-25.7-22.52
	c-6.79-8.85-12-19.15-15.06-30.58c-1.78-6.66-2.75-13.4-2.95-20.11c-0.2-6.84,0.4-13.6,1.76-20.14l0.62-2.73
	c1.85-7.9,4.82-15.41,8.7-22.34c3.95-7.06,8.85-13.51,14.51-19.17c0.31-0.17,3.95-3.7,4.62-4.28c2.12-1.84,4.33-3.58,6.62-5.21
	c2.33-1.66,4.7-3.18,7.08-4.54l3.39-1.83c4.52-2.34,9.3-4.31,14.29-5.84c4.91-1.52,9.97-2.62,15.1-3.26
	c0.32,0.02,1.39-0.15,1.82-0.19c3.11-0.32,6.29-0.47,9.49-0.45c3.31,0.02,6.49,0.21,9.49,0.56l2.15,0.28
	c9.56,1.33,18.58,4.19,26.83,8.31c8.5,4.24,16.21,9.82,22.84,16.45l2.01,2.01v0.1c2.93,3.13,5.64,6.49,8.11,10.04
	c2.98,4.31,5.6,8.91,7.77,13.74l1.67,3.91c1.96,4.98,3.49,10.24,4.53,15.73c1.01,5.35,1.54,10.81,1.54,16.32l-0.11,3.82l-0.2,3.43
	v80.25h-32.3V936.03z M1043.71,849.75c-0.17,1.71-0.26,3.59-0.26,5.63v2.17c0.07,1.65,0.22,3.33,0.44,5.03
	c0.3,2.29,0.78,4.66,1.43,7.09c1.94,7.24,5.22,13.75,9.5,19.32c4.45,5.81,9.98,10.62,16.19,14.2c3.41,1.97,7.07,3.58,10.88,4.8
	c3.7,1.19,7.56,1.99,11.48,2.36c0.76-0.05,2.49,0.16,3.11,0.19l2.15,0.01l3.19-0.07l4.19-0.4c1.24-0.17,2.41-0.36,3.46-0.58
	c0.94-0.19,2.09-0.47,3.44-0.83l1.81-0.48c4.07-1.23,7.94-2.91,11.52-4.98c4.16-2.4,8.02-5.37,11.44-8.79
	c4.44-4.45,8.14-9.67,10.86-15.43c2.58-5.45,4.3-11.38,4.96-17.58v-12.15c-0.14-1.26-0.32-2.53-0.55-3.79
	c-0.21-0.58-0.47-2.21-0.58-2.69l-0.44-1.69c-0.59-2.22-1.3-4.33-2.09-6.31c-0.83-2.09-1.78-4.09-2.82-5.99l-1.19-2.07
	c-1.08-1.77-2.35-3.59-3.79-5.42c-1.4-1.78-2.87-3.45-4.38-4.95c-5.14-5.11-11.21-9.22-17.92-11.99
	c-6.47-2.68-13.61-4.16-21.13-4.16c-1.35,0-2.52,0.03-3.5,0.09c-1.05,0.06-2.25,0.19-3.54,0.35l-0.34,0.03
	c-1.25,0.17-2.42,0.36-3.48,0.58c-0.95,0.19-2.09,0.47-3.42,0.82c-1.66,0.44-3.34,0.99-5.02,1.61c-1.59,0.57-3.22,1.26-4.85,2.05
	l-1.58,0.79c-2.44,1.3-4.8,2.78-7.02,4.42c-2.17,1.6-4.27,3.42-6.27,5.42c-1.26,1.26-2.33,2.4-3.17,3.4
	c-0.98,1.18-1.92,2.39-2.8,3.64c-1.01,1.33-2,3.03-2.84,4.44c-1.24,2.11-2.33,4.35-3.28,6.68c-0.93,2.27-1.71,4.62-2.34,7.01
	l-0.62,2.68C1044.18,846.04,1043.89,847.88,1043.71,849.75z M1354.95,787.31v-59.69h32.3v120.5l0.2,3.43l0.11,3.82
	c0,5.51-0.53,10.97-1.55,16.32c-1.04,5.49-2.57,10.75-4.53,15.73l-1.66,3.89c-2.17,4.86-4.79,9.46-7.77,13.77
	c-2.46,3.56-5.18,6.92-8.11,10.04v0.1l-2.01,2.01c-6.63,6.63-14.34,12.21-22.84,16.45c-8.25,4.12-17.27,6.98-26.81,8.31l-2.18,0.28
	c-3,0.35-6.18,0.54-9.49,0.56c-3.2,0.02-6.37-0.13-9.49-0.45l-1.82-0.21c-5.13-0.61-10.19-1.71-15.1-3.24
	c-4.99-1.54-9.76-3.51-14.29-5.85c-1.15-0.59-2.26-1.21-3.38-1.85c-2.4-1.34-4.76-2.87-7.09-4.52c-2.29-1.63-4.5-3.38-6.62-5.21
	c-0.67-0.58-4.31-4.1-4.62-4.28c-5.66-5.66-10.55-12.11-14.51-19.17c-3.88-6.93-6.85-14.44-8.73-22.34l-0.59-2.71
	c-1.35-6.56-1.96-13.32-1.76-20.16c0.2-6.71,1.16-13.46,2.95-20.11c3.06-11.42,8.26-21.73,15.06-30.58
	c7.04-9.18,15.82-16.8,25.7-22.51c8.18-4.74,17.16-8.15,26.57-10.04c9.14-1.83,18.68-2.22,28.28-0.98l2.78,0.4
	c9.15,1.47,17.85,4.37,25.83,8.45C1345.2,780.24,1350.28,783.55,1354.95,787.31z M1244.89,855.38c0,2.04,0.09,3.92,0.26,5.63
	c0.18,1.87,0.47,3.71,0.84,5.5c0.17,0.9,0.41,1.81,0.64,2.71c0.61,2.4,1.39,4.75,2.32,7.02c0.95,2.33,2.05,4.56,3.27,6.69
	c0.93,1.53,1.86,2.95,2.83,4.43c0.91,1.25,1.85,2.46,2.83,3.62c0.84,1.03,1.91,2.17,3.17,3.43c2,2,4.1,3.82,6.27,5.42
	c2.23,1.64,4.58,3.12,7.03,4.41l1.58,0.8c1.63,0.79,3.25,1.49,4.84,2.08c1.69,0.6,3.37,1.14,5.03,1.58
	c1.33,0.36,2.48,0.64,3.42,0.82c1.07,0.21,2.24,0.41,3.49,0.58l0.34,0.03c1.29,0.16,2.48,0.28,3.54,0.35
	c0.98,0.06,2.15,0.09,3.5,0.09c7.52,0,14.66-1.48,21.13-4.16c6.71-2.78,12.79-6.89,17.89-11.99c1.54-1.51,3.01-3.17,4.41-4.95
	c1.44-1.83,2.71-3.65,3.79-5.42c0.38-0.63,0.86-1.43,1.18-2.08c1.04-1.89,1.99-3.89,2.83-5.98c0.79-1.97,1.49-4.09,2.09-6.31
	c0.36-1.46,0.75-2.91,1-4.39c0.25-1.25,0.43-2.52,0.57-3.78v-12.15c-0.67-6.21-2.39-12.13-4.96-17.58
	c-2.73-5.76-6.42-10.98-10.86-15.43c-3.42-3.42-7.27-6.39-11.44-8.79c-3.6-2.07-7.47-3.76-11.55-4.99l-1.78-0.48
	c-1.35-0.36-2.5-0.64-3.44-0.83c-1.06-0.21-2.22-0.41-3.46-0.57c-1.37-0.19-2.81-0.28-4.19-0.4l-3.19-0.07l-2.15,0.01l-3.11,0.22
	c-3.92,0.35-7.78,1.15-11.48,2.33c-3.81,1.23-7.46,2.85-10.88,4.81c-6.21,3.58-11.74,8.39-16.19,14.2
	c-4.28,5.57-7.56,12.08-9.5,19.32c-0.65,2.44-1.13,4.81-1.43,7.09c-0.22,1.69-0.37,3.38-0.44,5.03V855.38z M640.83,758.81v28.5
	c4.67-3.77,9.75-7.07,15.15-9.83c7.98-4.08,16.68-6.98,25.83-8.45l2.78-0.4c9.59-1.24,19.13-0.85,28.27,0.98
	c9.41,1.89,18.39,5.3,26.58,10.03c9.88,5.72,18.65,13.35,25.7,22.52c6.79,8.85,12,19.15,15.06,30.58c1.78,6.66,2.75,13.4,2.95,20.11
	c0.2,6.84-0.4,13.6-1.76,20.14l-0.62,2.73c-1.85,7.9-4.82,15.41-8.7,22.34c-3.95,7.06-8.85,13.51-14.51,19.17
	c-0.31,0.17-3.95,3.7-4.62,4.28c-2.12,1.84-4.33,3.58-6.62,5.21c-2.33,1.66-4.7,3.18-7.08,4.54l-3.39,1.83
	c-4.52,2.34-9.3,4.31-14.29,5.85c-4.91,1.52-9.97,2.62-15.1,3.26c-0.32-0.02-1.39,0.15-1.82,0.19c-3.11,0.32-6.29,0.47-9.48,0.45
	c-3.31-0.02-6.49-0.21-9.49-0.56l-2.15-0.28c-9.56-1.33-18.58-4.19-26.83-8.31c-8.5-4.24-16.2-9.82-22.84-16.45l-2.01-2.01v-0.1
	c-2.93-3.13-5.64-6.49-8.11-10.04c-2.98-4.31-5.6-8.91-7.77-13.74l-1.66-3.91c-1.97-4.98-3.5-10.24-4.53-15.73
	c-1.01-5.35-1.55-10.81-1.55-16.32l0.11-3.82l0.2-3.43v-96.16h32.3V758.81z M750.63,861.02c0.17-1.71,0.26-3.59,0.26-5.63v-2.17
	c-0.07-1.65-0.22-3.33-0.44-5.03c-0.3-2.29-0.78-4.66-1.43-7.09c-1.94-7.24-5.22-13.75-9.5-19.32c-4.45-5.81-9.98-10.62-16.19-14.2
	c-3.41-1.96-7.07-3.58-10.88-4.8c-3.7-1.19-7.56-1.99-11.48-2.36c-0.76,0.05-2.49-0.16-3.11-0.19l-2.15-0.01l-3.19,0.07l-4.19,0.4
	c-1.24,0.17-2.41,0.36-3.46,0.57c-0.94,0.19-2.09,0.47-3.44,0.83l-1.78,0.48c-4.08,1.23-7.96,2.92-11.55,4.99
	c-4.16,2.4-8.01,5.37-11.44,8.79c-4.44,4.45-8.14,9.67-10.86,15.43c-2.58,5.45-4.3,11.38-4.96,17.58v12.15
	c0.14,1.26,0.32,2.53,0.55,3.79c0.21,0.58,0.48,2.21,0.58,2.69l0.44,1.69c0.59,2.22,1.3,4.34,2.09,6.31
	c0.83,2.09,1.78,4.09,2.82,5.99l1.19,2.07c1.08,1.77,2.35,3.59,3.79,5.42c1.4,1.79,2.87,3.45,4.38,4.95
	c5.13,5.11,11.21,9.22,17.92,11.99c6.47,2.68,13.61,4.16,21.13,4.16c1.35,0,2.52-0.03,3.5-0.09c1.05-0.06,2.25-0.19,3.54-0.35
	l0.34-0.03c1.25-0.17,2.42-0.36,3.49-0.58c0.95-0.19,2.09-0.47,3.42-0.82c1.66-0.44,3.34-0.99,5.02-1.61
	c1.59-0.57,3.22-1.26,4.85-2.05l1.58-0.78c2.44-1.3,4.8-2.78,7.02-4.42c2.17-1.6,4.27-3.42,6.27-5.42c1.26-1.26,2.33-2.4,3.17-3.4
	c0.98-1.18,1.92-2.39,2.8-3.64c1.01-1.33,2-3.03,2.84-4.44c1.24-2.11,2.33-4.35,3.28-6.68c0.93-2.27,1.71-4.62,2.34-7.01l0.62-2.68
	C750.16,864.73,750.45,862.88,750.63,861.02z M952.06,787.31v-59.69h32.3v120.5l0.2,3.43l0.11,3.82c0,5.51-0.53,10.97-1.54,16.32
	c-1.04,5.49-2.57,10.75-4.53,15.73l-1.67,3.89c-2.17,4.86-4.79,9.46-7.77,13.77c-2.46,3.56-5.18,6.92-8.11,10.04v0.1l-2.01,2.01
	c-6.63,6.63-14.34,12.21-22.84,16.45c-8.25,4.12-17.27,6.98-26.81,8.31l-2.18,0.28c-3,0.35-6.18,0.54-9.49,0.56
	c-3.2,0.02-6.37-0.13-9.48-0.45l-1.82-0.21c-5.13-0.61-10.19-1.71-15.1-3.24c-4.98-1.54-9.76-3.51-14.29-5.85
	c-1.15-0.59-2.26-1.21-3.37-1.85c-2.4-1.34-4.77-2.87-7.09-4.52c-2.29-1.63-4.5-3.38-6.62-5.21c-0.67-0.58-4.31-4.1-4.62-4.28
	c-5.66-5.66-10.55-12.11-14.51-19.17c-3.88-6.93-6.85-14.44-8.73-22.34l-0.59-2.71c-1.35-6.56-1.96-13.32-1.75-20.16
	c0.2-6.71,1.16-13.46,2.94-20.11c3.06-11.42,8.26-21.73,15.06-30.58c7.04-9.18,15.82-16.8,25.7-22.51
	c8.18-4.74,17.16-8.15,26.57-10.04c9.14-1.83,18.68-2.22,28.27-0.98l2.78,0.4c9.15,1.47,17.85,4.37,25.83,8.45
	C942.31,780.24,947.39,783.55,952.06,787.31z M842,855.38c0,2.04,0.09,3.92,0.26,5.63c0.19,1.87,0.47,3.71,0.84,5.5
	c0.17,0.9,0.41,1.81,0.64,2.71c0.61,2.4,1.39,4.75,2.32,7.02c0.95,2.33,2.05,4.56,3.27,6.69c0.93,1.53,1.86,2.95,2.83,4.43
	c0.91,1.25,1.85,2.46,2.83,3.62c0.84,1.03,1.91,2.17,3.17,3.43c2,2,4.1,3.82,6.27,5.42c2.23,1.64,4.58,3.12,7.03,4.41l1.58,0.8
	c1.63,0.79,3.25,1.49,4.84,2.08c1.69,0.6,3.37,1.14,5.03,1.58c1.34,0.36,2.48,0.64,3.42,0.82c1.07,0.21,2.24,0.41,3.49,0.58
	l0.34,0.03c1.29,0.16,2.48,0.28,3.54,0.35c0.98,0.06,2.15,0.09,3.5,0.09c7.52,0,14.66-1.48,21.13-4.16
	c6.71-2.78,12.79-6.89,17.89-11.99c1.54-1.51,3.01-3.17,4.41-4.95c1.44-1.83,2.71-3.65,3.79-5.42c0.37-0.63,0.86-1.43,1.18-2.08
	c1.04-1.89,1.99-3.89,2.83-5.98c0.79-1.97,1.49-4.09,2.08-6.31c0.37-1.46,0.75-2.91,1-4.39c0.25-1.25,0.43-2.52,0.57-3.78v-12.15
	c-0.67-6.21-2.39-12.13-4.96-17.58c-2.72-5.76-6.42-10.98-10.86-15.43c-3.42-3.42-7.27-6.39-11.44-8.79
	c-3.59-2.07-7.47-3.76-11.55-4.99l-1.78-0.48c-1.35-0.36-2.5-0.64-3.44-0.83c-1.06-0.21-2.22-0.41-3.46-0.57
	c-1.37-0.19-2.81-0.28-4.19-0.4l-3.19-0.07l-2.15,0.01l-3.11,0.22c-3.92,0.35-7.77,1.15-11.48,2.33c-3.81,1.23-7.46,2.85-10.88,4.81
	c-6.21,3.58-11.74,8.39-16.19,14.2c-4.28,5.57-7.56,12.08-9.5,19.32c-0.65,2.44-1.13,4.81-1.43,7.09c-0.22,1.69-0.37,3.38-0.44,5.03
	V855.38z M1554.33,839.23c-0.92-3.04-2.1-5.96-3.5-8.74c-2.65-5.26-6.13-10.04-10.24-14.16c-3.42-3.42-7.27-6.39-11.44-8.79
	c-3.6-2.07-7.47-3.76-11.55-4.99l-1.78-0.48c-1.35-0.36-2.5-0.64-3.44-0.83c-1.06-0.21-2.22-0.41-3.46-0.57
	c-1.37-0.19-2.81-0.28-4.19-0.4l-3.19-0.07l-2.15,0.01l-3.11,0.22c-3.92,0.35-7.78,1.15-11.48,2.33c-3.81,1.23-7.46,2.85-10.88,4.81
	c-6.21,3.58-11.73,8.39-16.19,14.2c-3.91,5.09-6.99,10.96-8.97,17.46H1554.33z M1448.73,871.53c0.49,1.6,1.05,3.18,1.68,4.71
	c0.95,2.33,2.05,4.56,3.27,6.69c0.93,1.53,1.86,2.95,2.83,4.43c0.91,1.25,1.85,2.46,2.83,3.62c0.84,1.03,1.91,2.17,3.17,3.43
	c2,2,4.1,3.82,6.27,5.42c2.23,1.64,4.58,3.12,7.03,4.41l1.58,0.8c1.63,0.79,3.25,1.49,4.84,2.08c1.69,0.6,3.37,1.14,5.03,1.58
	c1.34,0.36,2.48,0.64,3.42,0.82c1.07,0.21,2.24,0.41,3.48,0.58l0.34,0.03c1.29,0.16,2.48,0.28,3.54,0.35
	c0.98,0.06,2.15,0.09,3.5,0.09c7.52,0,14.66-1.48,21.13-4.16c6.71-2.78,12.79-6.89,17.89-11.99c1.32-1.29,2.54-2.64,3.68-4.02
	c1.04-1.26,2.12-2.73,3.21-4.37l2.03-3.05h35.76l-4.6,9.76c-2.17,4.59-4.7,8.94-7.56,12.99c-2.34,3.31-4.91,6.46-7.68,9.42v0.1
	l-2.01,2.01c-6.63,6.63-14.34,12.21-22.84,16.45c-8.25,4.12-17.27,6.98-26.81,8.31l-2.18,0.28c-3,0.35-6.18,0.54-9.49,0.56
	c-3.2,0.02-6.37-0.13-9.49-0.45l-1.82-0.21c-5.13-0.61-10.19-1.71-15.1-3.24c-4.99-1.54-9.76-3.51-14.29-5.85
	c-1.15-0.59-2.26-1.21-3.37-1.85c-2.4-1.34-4.77-2.87-7.09-4.52c-2.29-1.63-4.5-3.38-6.62-5.21c-0.67-0.58-4.31-4.1-4.62-4.28
	c-5.66-5.66-10.55-12.11-14.51-19.17c-3.88-6.93-6.85-14.44-8.73-22.34l-0.59-2.71c-1.35-6.56-1.96-13.32-1.76-20.16
	c0.2-6.71,1.16-13.46,2.95-20.11c3.06-11.42,8.26-21.73,15.06-30.58c7.04-9.18,15.82-16.8,25.7-22.51
	c8.18-4.74,17.16-8.15,26.57-10.04c9.14-1.83,18.68-2.22,28.27-0.98l2.78,0.4c9.15,1.47,17.85,4.37,25.83,8.45
	c8.2,4.19,15.64,9.63,22.06,16.05l0.06,0.04c8.06,8.09,14.56,17.72,18.98,28.4c4.28,10.32,6.64,21.62,6.64,33.42v16.15H1448.73z
	 M547.09,839.23c-0.93-3.04-2.1-5.96-3.5-8.74c-2.65-5.26-6.13-10.04-10.24-14.16c-3.42-3.42-7.27-6.39-11.44-8.79
	c-3.6-2.08-7.47-3.76-11.56-4.99l-1.77-0.48c-1.35-0.36-2.49-0.64-3.44-0.83c-1.06-0.21-2.22-0.41-3.46-0.57
	c-1.37-0.19-2.81-0.28-4.19-0.4l-3.19-0.07l-2.15,0.01l-3.11,0.22c-3.92,0.35-7.78,1.15-11.48,2.33c-3.81,1.23-7.46,2.85-10.88,4.81
	c-6.21,3.58-11.74,8.39-16.19,14.2c-3.91,5.09-6.99,10.96-8.97,17.46H547.09z M441.49,871.53c0.49,1.6,1.05,3.18,1.68,4.71
	c0.95,2.33,2.05,4.56,3.26,6.69c0.93,1.53,1.86,2.95,2.83,4.43c0.91,1.25,1.85,2.46,2.83,3.62c0.84,1.03,1.91,2.17,3.17,3.43
	c2,2,4.1,3.82,6.27,5.42c2.23,1.64,4.58,3.12,7.03,4.41l1.58,0.8c1.63,0.79,3.25,1.49,4.84,2.08c1.69,0.6,3.37,1.14,5.03,1.58
	c1.33,0.36,2.48,0.64,3.42,0.82c1.07,0.21,2.24,0.41,3.49,0.58l0.34,0.03c1.29,0.16,2.48,0.28,3.54,0.35
	c0.98,0.06,2.15,0.09,3.5,0.09c7.52,0,14.66-1.48,21.13-4.16c6.71-2.78,12.79-6.89,17.89-11.99c1.32-1.29,2.55-2.64,3.68-4.02
	c1.04-1.26,2.12-2.73,3.21-4.37l2.03-3.05H578l-4.6,9.76c-2.17,4.59-4.7,8.94-7.56,12.99c-2.34,3.31-4.91,6.46-7.68,9.42v0.1
	l-2.01,2.01c-6.63,6.63-14.34,12.21-22.84,16.45c-8.25,4.12-17.27,6.98-26.81,8.31l-2.18,0.28c-3,0.35-6.18,0.54-9.49,0.56
	c-3.2,0.02-6.37-0.13-9.48-0.45l-1.82-0.21c-5.13-0.61-10.19-1.71-15.1-3.24c-4.99-1.54-9.76-3.51-14.29-5.85
	c-1.15-0.59-2.26-1.21-3.38-1.85c-2.4-1.34-4.76-2.87-7.09-4.52c-2.29-1.63-4.5-3.38-6.62-5.21c-0.67-0.58-4.31-4.1-4.62-4.28
	c-5.66-5.66-10.55-12.11-14.51-19.17c-3.88-6.93-6.85-14.44-8.73-22.34l-0.59-2.71c-1.35-6.56-1.96-13.32-1.76-20.16
	c0.2-6.71,1.16-13.46,2.95-20.11c3.06-11.42,8.26-21.73,15.06-30.58c7.04-9.18,15.82-16.8,25.7-22.51
	c8.18-4.74,17.16-8.15,26.57-10.04c9.14-1.83,18.68-2.22,28.27-0.98l2.78,0.4c9.15,1.47,17.85,4.37,25.83,8.45
	c8.2,4.19,15.64,9.63,22.07,16.05l0.06,0.04c8.06,8.09,14.56,17.72,18.98,28.4c4.28,10.32,6.64,21.62,6.64,33.42v16.15H441.49z
	 M95,855.38c0,2.04,0.09,3.92,0.26,5.63c0.18,1.87,0.47,3.71,0.84,5.5c0.17,0.9,0.41,1.81,0.64,2.71c0.61,2.4,1.39,4.75,2.32,7.02
	c0.95,2.33,2.05,4.56,3.26,6.69c0.93,1.53,1.86,2.95,2.83,4.43c0.91,1.25,1.85,2.46,2.83,3.62c0.84,1.03,1.91,2.17,3.17,3.43
	c2,2,4.1,3.82,6.27,5.42c2.23,1.64,4.58,3.12,7.03,4.41l1.58,0.8c1.63,0.79,3.25,1.49,4.84,2.08c1.69,0.6,3.37,1.14,5.03,1.58
	c1.34,0.36,2.48,0.64,3.42,0.82c1.07,0.21,2.24,0.41,3.49,0.58l0.34,0.03c1.29,0.16,2.48,0.28,3.54,0.35
	c0.98,0.06,2.15,0.09,3.5,0.09c7.52,0,14.66-1.48,21.13-4.16c6.71-2.78,12.79-6.89,17.89-11.99c1.54-1.51,3.01-3.17,4.41-4.95
	c1.44-1.83,2.71-3.65,3.79-5.42c0.38-0.63,0.86-1.43,1.18-2.08c1.04-1.89,1.99-3.89,2.82-5.98c0.79-1.97,1.49-4.09,2.09-6.31
	c0.37-1.46,0.75-2.91,1-4.39c0.27-1.35,0.47-2.79,0.61-4.26c0.16-1.54,0.25-3.04,0.27-4.48c0.07-2.62-0.05-5.36-0.07-8h0.37V768.2
	h32.3v93.29c0.19,1.72,0.45,3.4,0.79,5.03c0.17,0.9,0.41,1.81,0.64,2.71c0.61,2.4,1.39,4.75,2.32,7.02
	c0.95,2.33,2.05,4.56,3.27,6.69c0.93,1.53,1.86,2.95,2.83,4.43c0.91,1.25,1.85,2.46,2.83,3.62c0.84,1.03,1.91,2.17,3.17,3.43
	c2,2,4.1,3.82,6.27,5.42c2.23,1.64,4.58,3.12,7.03,4.41l1.58,0.8c1.63,0.79,3.25,1.49,4.84,2.08c1.69,0.6,3.37,1.14,5.03,1.58
	c1.34,0.36,2.48,0.64,3.42,0.82c1.07,0.21,2.24,0.41,3.48,0.58l0.34,0.03c1.29,0.16,2.48,0.28,3.54,0.35
	c0.98,0.06,2.15,0.09,3.5,0.09c7.52,0,14.66-1.48,21.13-4.16c6.71-2.78,12.79-6.89,17.89-11.99c1.54-1.51,3.01-3.17,4.41-4.95
	c1.44-1.83,2.71-3.65,3.79-5.42c0.37-0.63,0.86-1.43,1.18-2.08c1.04-1.89,1.99-3.89,2.83-5.98c0.79-1.97,1.49-4.09,2.08-6.31
	c0.37-1.46,0.75-2.91,1-4.39c0.31-1.59,0.53-3.2,0.67-4.79c0.13-1.47,0.2-3.17,0.2-5.1l0-87.18h32.3v87.18
	c0,5.51-0.53,10.97-1.54,16.32c-1.04,5.49-2.57,10.75-4.53,15.73l-1.67,3.89c-2.17,4.86-4.79,9.46-7.77,13.77
	c-2.46,3.56-5.18,6.92-8.11,10.04v0.1l-2.01,2.01c-6.63,6.63-14.34,12.21-22.84,16.45c-8.25,4.12-17.27,6.98-26.81,8.31l-2.18,0.28
	c-3,0.35-6.18,0.54-9.49,0.56c-3.2,0.02-6.37-0.13-9.49-0.45l-1.82-0.21c-5.13-0.61-10.19-1.71-15.1-3.24
	c-4.99-1.54-9.76-3.51-14.29-5.85c-1.15-0.59-2.26-1.21-3.37-1.85c-2.4-1.34-4.77-2.87-7.09-4.52c-2.29-1.63-4.5-3.38-6.62-5.21
	c-0.67-0.58-4.31-4.1-4.62-4.28c-3.03-3.03-5.89-6.36-8.53-9.93l-0.94-1.3l-0.94,1.3c-2.02,2.74-4.21,5.36-6.53,7.83v0.1l-2.01,2.01
	c-6.63,6.63-14.34,12.21-22.84,16.45c-8.25,4.12-17.27,6.98-26.81,8.31l-2.17,0.28c-3,0.35-6.18,0.54-9.49,0.56
	c-3.2,0.02-6.37-0.13-9.49-0.45l-1.82-0.21c-5.13-0.61-10.19-1.71-15.1-3.24c-4.99-1.54-9.76-3.51-14.29-5.85
	c-1.15-0.59-2.26-1.21-3.37-1.85c-2.4-1.34-4.77-2.87-7.09-4.52c-2.29-1.63-4.5-3.38-6.62-5.21c-0.67-0.58-4.31-4.1-4.62-4.28
	c-5.66-5.66-10.55-12.11-14.51-19.17c-3.88-6.93-6.85-14.44-8.73-22.34l-0.59-2.71c-0.59-2.91-1.05-5.84-1.35-8.8
	c-0.31-3.05-0.47-6.01-0.47-8.83l0.01-87.18h32.3C94.99,797.26,94.94,826.33,95,855.38z"/>
<radialGradient id="SVGID_1_" cx="937.2553" cy="494.622" r="472.9351" gradientUnits="userSpaceOnUse">
	<stop  offset="0.3933" style="stop-color:#0079FA"/>
	<stop  offset="0.5261" style="stop-color:#0079FA"/>
	<stop  offset="0.6378" style="stop-color:#1467DA"/>
	<stop  offset="0.7807" style="stop-color:#2A53B6"/>
	<stop  offset="0.8572" style="stop-color:#324BA8"/>
	<stop  offset="0.9045" style="stop-color:#3647A1"/>
	<stop  offset="1" style="stop-color:#3C4298"/>
</radialGradient>
<path class="st1" d="M1124.97,276.74C1100.12,170,997.79,104.03,875.68,104.02c-0.01,0-0.01,0-0.02,0c-9.58,0-19.3,0.45-29.1,1.28
	v69.41c39.68,9.94,64.17,37.63,62.17,78.49c-1.84,37.59-25.69,78.71-62.17,113.75v177.34v46.15c0,18.93,18.27,32.75,36.37,27.19
	c0.12-0.04,0.24-0.08,0.37-0.11C1048.7,566.49,1156.89,413.92,1124.97,276.74z"/>
<radialGradient id="SVGID_00000137091580118430332030000003354409437796354491_" cx="967.2485" cy="212.3176" r="201.4056" fx="1042.2916" fy="208.4566" gradientUnits="userSpaceOnUse">
	<stop  offset="0.3933" style="stop-color:#0079FA"/>
	<stop  offset="0.5261" style="stop-color:#0079FA"/>
	<stop  offset="0.5932" style="stop-color:#0C6EE6"/>
	<stop  offset="0.6372" style="stop-color:#1467DA"/>
	<stop  offset="0.7806" style="stop-color:#2A53B6"/>
	<stop  offset="0.8572" style="stop-color:#324BA8"/>
	<stop  offset="0.9045" style="stop-color:#3647A1"/>
	<stop  offset="1" style="stop-color:#3C4298"/>
</radialGradient>
<path style="fill:url(#SVGID_00000137091580118430332030000003354409437796354491_);" d="M740.13,183.06
	c40.66-13.42,77.58-15.61,106.46-8.38V105.3c-25.81,2.16-52.29,7.23-78.88,15.42c-165.39,51.04-271.03,214.64-241.66,340.8
	c29.36,126.13,192.72,131.63,320.55,82.77V357.44c0-23.62-27.27-36.98-45.79-22.29C706.43,410,555.64,437.47,558.98,368.52
	C562.44,297.92,643.54,214.91,740.13,183.06z"/>
</svg>
